<?xml version="1.0" standalone="no"?>
<!DOCTYPE svg PUBLIC "-//W3C//DTD SVG 20010904//EN"
 "http://www.w3.org/TR/2001/REC-SVG-20010904/DTD/svg10.dtd">
<svg version="1.0" xmlns="http://www.w3.org/2000/svg"
 width="300.000000pt" height="300.000000pt" viewBox="0 0 300.000000 300.000000"
 preserveAspectRatio="xMidYMid meet">
<metadata>
Created by potrace 1.14, written by Peter Selinger 2001-2017
</metadata>
<g transform="translate(0.000000,300.000000) scale(0.100000,-0.100000)"
fill="#000000" stroke="none">
<path d="M1190 2993 c-14 -2 -58 -13 -98 -24 -140 -37 -236 -98 -407 -259
-122 -115 -201 -170 -245 -170 -14 0 -39 14 -62 37 -44 43 -55 39 -34 -10 18
-44 60 -67 145 -82 l64 -11 -57 -42 c-31 -24 -56 -50 -56 -61 0 -9 -12 -28
-26 -42 -34 -31 -57 -77 -50 -96 8 -21 46 -13 146 31 l79 34 -52 -52 c-29 -28
-67 -79 -85 -112 -17 -34 -60 -104 -94 -155 -33 -52 -83 -134 -109 -182 l-48
-88 35 -166 c20 -92 48 -202 64 -246 l28 -79 -24 -48 c-30 -60 -44 -131 -34
-173 21 -94 96 -164 193 -182 44 -8 62 -32 152 -195 135 -246 228 -349 398
-444 130 -73 395 -156 544 -170 73 -7 197 7 268 30 93 31 250 106 301 144 161
121 405 398 420 477 6 34 -1 183 -11 248 -5 25 -1 33 26 50 18 11 46 37 63 58
27 34 31 48 34 111 4 67 2 75 -18 89 l-22 16 16 83 c9 46 19 103 22 128 4 25
26 78 51 120 58 101 83 183 83 280 0 130 -62 335 -131 432 -12 17 -41 39 -64
49 -35 15 -44 25 -54 61 -20 67 -80 190 -105 218 -13 14 -31 39 -39 56 -58
115 -475 262 -928 328 -100 15 -221 19 -279 9z m682 -947 c98 -25 159 -47 214
-77 42 -23 100 -46 127 -50 75 -12 145 -64 218 -161 88 -117 88 -118 33 -67
-88 84 -154 105 -275 89 -85 -10 -129 -26 -129 -47 0 -16 -7 -17 68 7 90 28
166 26 229 -5 49 -25 109 -81 144 -135 21 -31 36 -19 21 15 -19 42 -7 28 39
-42 l44 -67 -2 -86 c-2 -48 -12 -122 -23 -165 -11 -43 -20 -85 -20 -94 0 -9
-16 -49 -35 -90 -41 -85 -44 -130 -18 -256 28 -134 3 -202 -135 -366 -50 -59
-145 -146 -265 -241 -74 -59 -139 -86 -327 -138 -103 -28 -285 -28 -412 0
-214 48 -352 123 -504 275 -82 82 -117 129 -246 332 -21 32 -47 71 -60 86 -19
23 -20 29 -8 37 8 5 26 6 41 3 30 -6 50 14 28 28 -8 5 -45 9 -83 9 -192 0
-294 164 -199 319 33 52 76 77 165 94 41 7 68 7 93 -1 31 -9 37 -8 42 6 4 9 0
20 -9 26 -14 8 -14 14 -1 53 16 48 17 48 63 32 41 -15 47 -6 56 84 4 39 11 67
18 67 6 0 22 26 36 58 18 42 47 80 110 142 122 123 144 138 224 149 108 15
192 -5 273 -65 17 -13 36 -24 42 -24 49 0 -91 95 -165 111 -28 6 -81 10 -117
7 l-65 -4 19 25 c22 27 116 70 169 77 19 2 100 22 180 43 184 50 227 51 402 7z
m-762 -116 c0 -5 -4 -10 -10 -10 -5 0 -10 5 -10 10 0 6 5 10 10 10 6 0 10 -4
10 -10z m1490 -339 c5 -18 5 -33 -1 -36 -5 -4 -9 5 -9 19 0 13 -3 33 -7 43 -3
10 -3 15 1 12 4 -4 11 -20 16 -38z m24 -481 c-4 -19 -12 -46 -19 -60 -15 -29
-72 -86 -79 -79 -3 3 14 51 37 107 36 91 43 101 54 85 8 -11 11 -30 7 -53z"/>
<path d="M1039 1436 c-142 -58 -213 -154 -214 -289 0 -63 2 -71 28 -93 42 -36
82 -31 156 16 131 85 157 94 256 94 50 -1 127 -3 173 -5 81 -4 84 -3 108 24
19 22 24 39 24 82 0 46 -5 60 -30 88 -80 91 -366 139 -501 83z m286 -18 c97
-11 171 -42 206 -86 26 -33 25 -92 -3 -127 -21 -27 -22 -27 -107 -20 -47 4
-118 8 -157 8 -75 0 -100 -9 -262 -98 -70 -38 -112 -44 -137 -18 -14 13 -16
30 -13 82 8 111 69 194 178 245 62 29 131 32 295 14z"/>
<path d="M1010 1280 c0 -22 1 -23 24 -14 23 9 20 34 -4 34 -13 0 -20 -7 -20
-20z"/>
<path d="M2113 1409 c-75 -9 -139 -37 -173 -73 -22 -24 -25 -37 -25 -98 0 -61
3 -72 24 -89 32 -26 86 -24 196 6 118 33 154 32 233 -6 51 -25 70 -30 90 -23
64 23 91 123 50 184 -58 86 -208 124 -395 99z m295 -49 c70 -30 92 -60 92
-121 0 -86 -52 -112 -133 -65 -66 38 -100 40 -219 12 -118 -28 -177 -33 -196
-14 -18 18 -14 87 7 135 32 69 73 81 272 77 104 -1 134 -5 177 -24z"/>
<path d="M2366 1314 c-19 -18 -13 -34 14 -34 19 0 34 25 24 41 -8 13 -21 11
-38 -7z"/>
<path d="M521 1190 c-44 -7 -60 -20 -102 -85 -10 -16 -19 -38 -19 -49 0 -15 5
-17 35 -12 42 8 44 0 10 -50 -31 -46 -31 -59 0 -89 16 -17 35 -25 60 -25 34 0
46 12 24 26 -8 5 -8 8 0 13 32 20 69 250 43 271 -4 4 -27 3 -51 0z"/>
<path d="M1770 1072 c0 -5 9 -17 20 -27 23 -21 80 -107 80 -121 0 -5 -15 -16
-33 -25 -19 -9 -33 -25 -35 -37 -4 -25 13 -30 21 -7 4 8 22 21 42 29 19 8 35
20 35 27 0 23 -64 140 -84 155 -23 16 -46 19 -46 6z"/>
<path d="M805 922 c-73 -35 -115 -103 -115 -187 0 -159 200 -322 515 -420 357
-112 641 -83 994 101 347 180 399 349 132 428 -50 15 -66 14 -232 -4 -359 -40
-695 -19 -1064 66 -156 36 -183 38 -230 16z m190 -38 c314 -73 556 -99 840
-91 129 4 238 13 305 25 108 19 128 18 215 -13 36 -13 40 -18 42 -52 2 -21 -1
-43 -5 -48 -7 -10 -68 -32 -150 -54 -23 -7 -40 -16 -37 -21 9 -15 91 -12 132
5 48 20 50 20 56 -22 8 -45 -2 -58 -95 -119 -112 -75 -308 -153 -493 -196
-126 -30 -311 -29 -455 1 -113 24 -287 89 -413 154 -115 59 -202 168 -222 280
-8 39 8 54 18 17 4 -17 14 -20 60 -20 31 0 58 4 62 9 8 14 -28 31 -64 31 -24
0 -31 4 -31 20 0 11 -7 23 -15 27 -14 5 -14 8 2 25 21 23 101 67 123 67 8 1
65 -11 125 -25z"/>
<path d="M1266 561 c16 -17 175 -44 188 -31 14 14 -36 30 -123 37 -58 4 -73 3
-65 -6z"/>
</g>
</svg>
